<?xml version="1.0" encoding="UTF-8" standalone="no"?>
<svg
   xmlns:dc="http://purl.org/dc/elements/1.1/"
   xmlns:cc="http://creativecommons.org/ns#"
   xmlns:rdf="http://www.w3.org/1999/02/22-rdf-syntax-ns#"
   xmlns:svg="http://www.w3.org/2000/svg"
   xmlns="http://www.w3.org/2000/svg"
   id="svg8"
   version="1.1"
   viewBox="0 0 210 297"
   height="297mm"
   width="210mm">
  <defs
     id="defs2" />
  <metadata
     id="metadata5">
    <rdf:RDF>
      <cc:Work
         rdf:about="">
        <dc:format>image/svg+xml</dc:format>
        <dc:type
           rdf:resource="http://purl.org/dc/dcmitype/StillImage" />
        <dc:title></dc:title>
      </cc:Work>
    </rdf:RDF>
  </metadata>
  <g
     id="layer1">
    <path
       id="path91"
       d="M 114.3418,54.0625 C 99.974685,54.570236 86.352543,61.566556 76.764403,72.115072 67.634657,74.949346 57.577837,73.214832 48.084369,73.341946 33.77812,73.167733 19.480428,70.092283 5.209313,71.269516 c -7.9540645,7.246578 11.827499,12.462602 13.960302,20.006845 7.322301,9.453739 18.824545,13.782489 30.263802,15.573959 6.391277,2.22067 19.963662,6.30472 11.114678,13.2747 -1.678256,10.74344 -3.207847,21.24656 -14.819059,25.463 -7.000088,6.16615 -16.33145,9.3849 -21.633571,17.23624 -3.986375,5.95533 0.147842,12.52222 1.131519,16.62117 -4.969889,5.03589 -4.083505,15.39834 -0.3028,14.88927 0.781756,9.31523 9.112577,-1.23081 8.704855,-4.99028 5.6358,6.11316 16.502204,16.44052 23.488888,6.59082 3.904093,-4.57131 1.041281,10.00779 1.808909,13.44818 -0.0046,15.4814 -1.644087,31.19287 0.760713,46.53301 4.281649,9.22233 16.120832,9.88652 24.926109,11.51353 10.796791,0.49717 20.958242,-6.36904 31.864332,-3.23427 10.95081,2.76869 22.63239,2.34365 32.57983,-3.45526 9.16097,-4.96982 22.56293,-7.6944 22.61187,-20.3834 7.77858,-12.62252 5.18526,-28.09243 4.0649,-42.08555 0.79303,-5.06721 -7.65387,-20.47492 2.21642,-12.7367 7.66819,5.75508 17.39139,-1.16959 20.66617,-7.47619 9.67901,0.67101 -0.93676,-10.2673 4.12624,-16.06411 1.68903,-10.86897 -6.22191,-20.09643 -15.103,-24.82302 -6.76771,-4.76713 -12.48033,-7.52868 -14.85472,-15.58625 -1.80233,-4.91062 -4.82443,-10.91292 -9.48644,-12.93852 5.75672,-9.732425 20.11636,-12.223731 22.31082,-24.241899 2.58517,-4.943516 13.48791,-19.575413 1.87694,-17.792363 -11.06518,1.495217 -23.16442,6.555629 -33.97921,2.143995 C 141.36772,61.820793 129.08029,52.958447 114.3418,54.0625 Z m 2.96875,1.986328 c 4.3608,-0.260414 18.10202,2.959313 7.04922,2.427675 -4.33831,-0.734506 -10.81195,2.604537 -2.15419,2.169188 10.88192,-4.643307 19.50338,4.231526 29.35743,9.323862 8.73489,5.362134 19.36972,1.2232 28.76807,0.134864 5.39692,-2.081827 16.07853,-2.068926 5.32696,1.202417 -7.15856,2.569826 -16.77977,6.710302 -22.35456,7.761504 -1.49174,-5.003404 -9.44038,-7.022729 -2.90438,-0.890657 2.48714,2.114358 -7.43857,-3.378631 -10.48109,-2.185559 3.30893,-4.469687 -5.00794,-10.580402 -1.48345,-2.566027 -4.0623,11.814869 -0.53473,-10.721618 -7.74319,-6.808902 9.17797,4.918484 -3.22836,15.240379 0.0987,18.677392 1.81949,-10.234846 16.00109,-6.66973 21.14032,-4.299032 -1.87596,11.114585 6.06762,24.374117 -5.226,31.993177 -8.60494,2.43612 -14.85119,10.96816 -24.48157,10.14297 -9.67041,-1.79619 -19.21824,-3.59594 -29.15667,-3.59313 C 92.003876,118.50609 81.985045,112.88559 82.368742,100.86974 79.81911,91.920739 81.705484,80.833082 79.227616,72.69699 88.689924,62.01384 103.08045,55.872759 117.31055,56.048828 Z m -4.20508,3.5 c 0.0781,5.126103 22.82932,5.07158 8.98374,1.507727 -3.01566,-0.295196 -6.21335,-0.439897 -8.98374,-1.507727 z m 14.12305,7.203125 c 1.98489,1.310635 9.63852,6.124835 7.66093,12.429362 4.92165,3.964484 0.0149,-17.35584 -7.66093,-12.429362 z m 62.89453,5.070313 c -5.68578,7.510396 -5.90674,19.093242 -15.20881,23.396933 -5.08813,0.253458 -9.23977,13.310831 -10.27166,4.106973 11.11647,-4.295849 18.52557,-13.599101 21.60389,-24.889115 -0.30729,-2.152437 2.63692,-2.003435 3.87658,-2.614791 z M 9.1894531,72.876953 c 22.5041869,0.764074 45.0795529,4.134589 67.5717529,2.145905 4.403013,8.12766 0.107545,18.120482 3.71145,26.543552 -2.144827,-1.626323 -11.37554,-6.555288 -3.83789,-6.224613 C 72.078365,83.979464 60.678463,82.806241 50.34308,79.940539 37.511499,76.194584 23.991366,76.000127 10.759766,74.818359 c -6.4262536,6.609348 12.705111,8.406974 14.625169,15.460479 11.95187,11.286632 29.8848,10.271892 43.576153,18.337322 4.728975,3.26086 11.438284,0.80859 12.2186,-5.00288 5.2281,16.38963 -18.877491,10.47659 -25.484041,3.22088 C 45.063584,102.93845 32.351712,102.77139 24.288074,93.673845 19.075834,85.911819 8.7170152,80.568119 4.9962519,73.33134 6.3022686,72.682825 7.7852292,72.941553 9.1894531,72.876953 Z M 184.51367,74.349609 c -3.71597,9.913082 -8.92474,18.797786 -19.33647,22.610542 -2.31528,-2.230242 -2.98814,-17.109656 5.06747,-18.473355 4.40382,-1.922441 10.4701,-2.588395 14.269,-4.137187 z M 10.904297,76.841797 c 16.186936,1.192629 32.507526,2.373648 47.975266,7.628044 8.177132,-0.242408 15.710889,6.806393 13.571609,13.43055 5.049522,1.803307 10.219173,8.391429 2.219495,10.086329 C 63.791919,104.16199 52.956691,99.809052 41.469738,97.414357 30.763507,95.619578 25.204405,85.839745 16.622186,80.85247 14.825496,79.896505 11.23495,79.002854 10.904297,76.841797 Z m 103.150393,0.160156 c -5.31163,-2.637512 -17.601914,11.067303 -8.08166,4.376997 6.77256,-5.255932 19.03907,0.0083 23.08161,0.631241 -3.63716,-4.323044 -9.6696,-5.215504 -14.99995,-5.008238 z m 40.6289,3.833985 c -9.33223,0.0922 -10.12333,17.13931 -16.17097,12.917215 6.31048,6.904507 -2.57034,8.196367 -6.81294,4.077326 -0.43653,4.738281 9.50572,5.358871 11.08762,1.885942 0.13924,-6.763444 16.17857,6.906239 18.73603,-4.48621 1.16827,-5.219087 -0.27188,-13.815692 -6.83974,-14.394273 z m -40.33984,1.386718 c -11.38391,-3.087258 -10.83527,17.293586 -20.635115,9.848025 -3.67635,-3.920928 -7.663096,-3.538404 -2.242952,1.094868 10.884187,1.493172 19.423847,14.228431 31.514867,6.656829 10.1292,-3.990779 -1.65376,-18.238986 -8.6368,-17.599722 z M 81.943359,93.220703 c 2.686196,8.239657 20.469351,2.636163 7.694935,0.550487 -6.158039,-1.909458 3.708835,5.376916 -3.597295,1.094674 -0.277133,0.02146 -5.937295,-4.034215 -4.09764,-1.645161 z m 55.146481,15.228517 c -3.79174,1.33964 -20.2308,1.28542 -11.08421,3.66215 6.73445,-1.46714 15.81478,-1.17461 20.63499,-1.01371 -0.01,-2.76701 -7.01162,-2.51582 -9.55078,-2.64844 z m 25.35352,2.98828 c 7.37721,2.52664 7.98033,11.97164 11.52512,17.90353 -0.5772,10.94314 -13.05313,13.01421 -21.33719,16.08349 -12.12001,5.21371 -25.5709,4.37106 -38.426,5.45244 -10.35777,-0.8293 -20.41079,-4.05166 -30.824461,-3.45698 -8.231255,-1.26246 -26.390525,-4.6731 -23.070182,-16.73534 0.420628,-9.28135 5.356038,-18.87483 16.161331,-14.49878 11.882252,-0.1983 22.499787,6.70722 34.452462,5.84077 11.37985,-0.36825 23.4741,7.10283 34.08106,-0.25768 4.2888,-5.33323 12.05224,-6.33101 10.00955,2.79742 -1.2208,4.04414 -0.86871,22.85677 1.07012,10.01763 4.0209,-9.91345 -6.18624,-19.42549 6.35819,-23.1465 z m -78.808594,2.2207 c 9.679269,4.58861 -7.558825,-0.26723 0,0 z m 94.843754,19.60742 c 10.99194,3.75757 16.85257,17.43697 8.81553,27.02121 -2.4992,5.25342 -12.15039,18.63814 -10.8436,5.39954 -3.18751,-4.95811 -1.14745,-14.81375 -2.98305,-17.09183 -5.79919,8.77672 6.07287,19.05345 -0.0815,27.75578 -5.66459,11.45521 3.37755,24.49233 1.4013,36.92399 1.18707,12.96799 -3.27602,26.1719 -9.29836,36.86661 -6.6383,2.26235 -17.69492,11.97032 -21.7332,8.57097 0.84092,-12.74284 4.65529,-25.2657 3.72425,-38.17048 0.60017,-23.65379 -1.06496,-47.34047 -0.30213,-70.96524 10.19289,-4.52461 24.48252,-5.32934 28.77344,-17.58008 l 1.26368,0.63477 z m 2.95117,3.0625 c 5.09501,8.22875 -2.1369,14.52997 -6.58008,20.89649 6.72408,-2.26548 14.64487,-14.44805 6.88867,-20.88867 l -0.30859,-0.008 z M 59.083984,139.5 c 9.433883,7.98557 21.266763,11.29186 33.310664,10.13303 11.006062,1.68777 22.137632,4.59333 33.330482,2.4441 4.52127,2.18435 -1.44551,14.41511 -0.0497,20.80767 -0.33667,22.68099 3.56205,45.52418 -0.6361,68.07571 -0.0557,6.39282 -2.81073,17.26892 0.13668,20.99981 0.69319,-8.18241 2.34577,-27.67095 3.20686,-28.75804 -1.51477,9.34865 0.026,23.86942 -4.09679,29.91951 -9.63776,-1.37713 -19.91171,-2.94569 -29.305262,0.99949 -7.626275,3.25414 -5.463458,0.0195 -5.934247,-5.99903 -6.204885,-9.89681 -10.882912,-22.18765 -4.135011,-33.2283 2.797044,-4.43662 1.477332,-14.38082 -0.497712,-4.13713 -4.395539,9.52684 -8.132178,21.12831 -1.065271,30.53615 7.022081,6.79296 5.470696,19.08998 -5.766388,12.92085 -10.513864,-0.69898 -19.491211,-8.6774 -16.930745,-19.89259 -0.179937,-18.0203 0.502852,-36.0377 0.265646,-54.05795 1.505446,-5.67984 14.874029,-13.46714 11.889097,-16.82953 -6.442932,11.3402 -8.052132,-6.12444 -13.901107,-10.36401 -3.54567,-5.3214 -12.265953,-11.49571 -15.138017,-13.75994 5.099808,-3.27676 9.887882,-7.06553 15.316901,-9.8098 z m 133.009766,3.1875 c 10.20072,6.26897 10.49043,20.65993 5.39039,30.46479 -1.37372,12.00081 -15.09392,15.64564 -22.94566,8.10337 2.78449,-9.87014 16.51816,-16.20952 18.2785,-28.25052 1.18259,-3.36827 -0.36309,-7.66694 -0.72323,-10.31764 z m -47.47852,9.22852 c 0.77229,25.80803 1.09687,51.65329 0.68306,77.47088 -0.041,10.6239 -4.01301,20.85884 -3.47993,31.51935 -5.78494,4.73912 -18.73433,5.21004 -13.4207,-5.47109 4.20128,-30.67107 0.12684,-61.75809 3.544,-92.45563 -0.7964,-9.20475 4.09068,-12.9131 12.55639,-12.61039 z m -101.550777,-0.0977 c 9.130329,3.95016 15.018563,12.80727 19.732811,21.16234 8.366875,4.52219 -3.609436,19.9052 -3.461014,6.61473 -3.345103,-11.11165 -14.815478,-16.39847 -22.32314,-24.42515 0.961418,-1.73681 3.775933,-5.02869 6.051343,-3.35192 z M 131.75,151.71094 c -0.87302,8.98967 -3.44308,18.82231 -3.25583,28.32257 -0.41138,6.85747 0.20007,22.84118 0.0361,23.84046 -1.25044,-17.25019 -2.05648,-35.13263 1.5125,-52.00837 l 0.54478,-0.089 1.16246,-0.0657 z m -96.90625,4.69726 c 7.870401,7.24703 18.736692,13.03354 22.552469,23.56056 7.544086,8.99897 -9.344942,27.56987 -12.861606,11.44158 -4.247366,-11.73889 -29.013448,-14.58972 -17.049265,-30.05431 2.267066,-1.79264 4.193125,-4.77759 7.358402,-4.94783 z m 117.63086,7.85742 c -3.65298,12.28228 2.1589,25.53295 3.02191,38.11886 2.36883,5.488 -2.73881,22.385 -0.0442,22.08835 4.89483,-15.01334 0.86827,-30.94269 -1.87102,-46.04846 -1.43345,-4.42103 0.40539,-10.91899 -1.10665,-14.15875 z m 47.57812,8.32618 c 1.66447,2.98614 -0.50158,1.04195 0,0 z m -1.16601,2.68359 c 1.6166,1.5 -0.64352,1.03606 0,0 z m -74.81836,0.19727 c -10.33875,14.43778 -7.7087,33.43847 -6.39584,50.18548 1.17072,10.54539 1.27995,21.32085 -0.079,31.75843 4.36229,-6.44431 2.55653,-17.87688 2.56402,-26.2242 -1.34531,-18.15583 -4.8173,-37.72347 4.32975,-54.54619 l 0.16949,-0.80823 z m -95.746094,3.99804 c 3.187724,1.58659 -5.094272,15.97822 -3.89713,5.85844 0.902274,-1.29217 2.095256,-6.12595 3.89713,-5.85844 z m 42.724609,0.1836 c 1.162562,10.56467 -3.483302,20.71826 -5.895698,30.93579 -2.005022,5.41849 1.339811,14.39842 1.370284,3.95681 0.933524,-11.63791 9.719383,-22.98164 4.97268,-34.77151 z m -39.230469,2.3125 c 6.51155,1.53783 -3.246505,7.97483 -2.121094,12.42187 -3.233532,-3.85998 -1.062617,-9.05132 2.121094,-12.42187 z m 5.208985,2.94922 c 4.685048,2.81929 10.339164,15.59057 1.898613,7.0952 -2.042782,-2.42263 -6.946165,-5.17147 -1.898613,-7.0952 z m -13.482422,4.73828 c 0.790991,2.05304 -1.754936,1.18553 0,0 z m 139.275391,2.08203 c 1.23655,10.53923 -0.41361,21.88998 -3.1904,32.45155 -0.66114,4.81927 -2.83454,14.17616 0.25403,16.64718 -0.65689,-16.36601 8.8627,-32.38064 3.66358,-48.634 z m -135.691407,1.5664 c 1.720845,1.91614 -1.361188,3.10718 0,0 z m 53.960938,9 c 4.572048,12.85785 -7.759598,22.40744 -10.646438,34.03499 0.853135,6.53754 2.819537,15.57784 2.679641,20.61931 5.136411,-9.24274 -5.815224,-20.99235 3.244214,-29.49248 5.708691,-6.75685 9.879199,-16.70968 5.138598,-25.09346 l -0.416015,-0.0684 z"
       style="fill:#000000;stroke-width:0.35277778" />
  </g>
</svg>
